<svg viewBox="0 0 24 24" fill="none"><path d="M18.492 2.33l3.179 3.18a2.25 2.25 0 010 3.182l-2.584 2.584A2.25 2.25 0 0121 13.5v5.25A2.25 2.25 0 0118.75 21H5.25A2.25 2.25 0 013 18.75V5.25A2.25 2.25 0 015.25 3h5.25a2.25 2.25 0 012.225 1.915l2.585-2.585a2.25 2.25 0 013.182 0zM4.5 18.75c0 .415.336.75.75.75h5.999l.001-6.75H4.5v6zm8.249.75h6.001a.75.75 0 00.75-.75V13.5a.75.75 0 00-.75-.75h-6.001v6.75zM10.5 4.5H5.25a.75.75 0 00-.75.75v6h6.75v-6a.75.75 0 00-.75-.75zm2.25 4.81v1.94h1.94l-1.94-1.94zm3.62-5.918L13.193 6.57a.75.75 0 000 1.061l3.179 3.179a.75.75 0 001.06 0l3.18-3.179a.75.75 0 000-1.06l-3.18-3.18a.75.75 0 00-1.06 0z" fill="currentColor"/></svg>