<svg viewBox="0 0 24 24" fill="none"><path d="M12 0c6.627 0 12 5.373 12 12s-5.373 12-12 12S0 18.627 0 12 5.373 0 12 0zm0 1.5C6.201 1.5 1.5 6.201 1.5 12S6.201 22.5 12 22.5 22.5 17.799 22.5 12 17.799 1.5 12 1.5zm0 15a1.25 1.25 0 110 2.5 1.25 1.25 0 010-2.5zm0-11.75c1.963 0 3.75 1.725 3.75 3.75 0 1.431-.465 2.274-1.546 3.306l-.197.184-.204.187c-.806.738-1.053 1.125-1.053 1.823a.75.75 0 01-1.5 0c0-1.149.398-1.842 1.343-2.745l.57-.528c.81-.772 1.087-1.285 1.087-2.227 0-1.184-1.104-2.25-2.25-2.25S9.75 7.316 9.75 8.5a.75.75 0 01-1.5 0c0-2.025 1.787-3.75 3.75-3.75z" fill="currentColor"/></svg>