<svg viewBox="0 0 24 24" fill="none"><path d="M12 2a.75.75 0 01.75.75v1.5a.75.75 0 01-1.5 0v-1.5A.75.75 0 0112 2zm5 10a5 5 0 11-10 0 5 5 0 0110 0zm4.25.75a.75.75 0 000-1.5h-1.5a.75.75 0 000 1.5h1.5zM12 19a.75.75 0 01.75.75v1.5a.75.75 0 01-1.5 0v-1.5A.75.75 0 0112 19zm-7.75-6.25a.75.75 0 000-1.5h-1.5a.75.75 0 000 1.5h1.5zm-.03-8.53a.75.75 0 011.06 0l1.5 1.5a.75.75 0 01-1.06 1.06l-1.5-1.5a.75.75 0 010-1.06zm1.06 15.56a.75.75 0 11-1.06-1.06l1.5-1.5a.75.75 0 111.06 1.06l-1.5 1.5zm14.5-15.56a.75.75 0 00-1.06 0l-1.5 1.5a.75.75 0 001.06 1.06l1.5-1.5a.75.75 0 000-1.06zm-1.06 15.56a.75.75 0 101.06-1.06l-1.5-1.5a.75.75 0 10-1.06 1.06l1.5 1.5z" fill="currentColor"/></svg>